<svg width="15" height="13" xmlns="http://www.w3.org/2000/svg"><path d="M13.883 11.523l-6-11A.998.998 0 007.008 0Q6.734 0 6.5.14a.998.998 0 00-.367.383l-6 11q-.274.493.016.985c.088.15.21.27.363.36a.977.977 0 00.496.132h12a.977.977 0 00.496-.133.981.981 0 00.363-.36.932.932 0 00.016-.984zM7.993 7.82l.14-3.586a.172.172 0 00-.078-.148Q7.953 4 7.867 4H6.148q-.085 0-.187.086-.078.055-.078.164l.133 3.57q0 .078.078.13.078.05.187.05h1.446a.318.318 0 00.183-.05q.074-.052.082-.13zm.015 2.922V9.258a.25.25 0 00-.074-.184Q7.859 9 7.758 9h-1.5q-.102 0-.176.074a.25.25 0 00-.074.184v1.484a.25.25 0 00.074.184q.074.074.176.074h1.5q.101 0 .176-.074a.25.25 0 00.074-.184z" fill="#DD9A1A" fill-rule="evenodd"/></svg>