<svg xmlns="http://www.w3.org/2000/svg" width="84" height="29.2"><path d="M13 29.2c-.9 0-1.9-.2-3-.5s-2.1-.8-3.1-1.5c-1.8-1.2-3.2-2.8-4.3-4.8-1.1-2-1.7-4.4-1.7-7 0-2.6.6-5 1.7-7s2.6-3.6 4.3-4.8C7.9 3 9 2.5 10 2.2c1.1-.3 2.1-.5 3-.5.9 0 1.9.2 3 .5s2.1.8 3.1 1.5c1.8 1.2 3.2 2.8 4.3 4.8 1.1 2 1.7 4.4 1.7 7 0 2.6-.6 5-1.7 7s-2.6 3.6-4.3 4.8c-1 .7-2.1 1.2-3.1 1.5-1 .3-2 .4-3 .4zm0-.6c.8 0 1.5-.2 2.2-.5.7-.3 1.3-1 1.9-2 .2-.4.4-.8.6-1.4.2-.5.4-1.2.5-2.1.2-.8.3-1.8.4-3 .1-1.2.1-2.6.1-4.2s0-3-.1-4.2c-.1-1.2-.2-2.2-.4-3-.2-.8-.3-1.5-.5-2.1-.2-.5-.4-1-.6-1.4-.6-1-1.2-1.6-1.9-2-.7-.3-1.4-.5-2.2-.5s-1.5.2-2.2.5c-.7.3-1.3 1-1.9 2-.3.4-.5.9-.7 1.4-.2.6-.3 1.3-.5 2.1s-.3 1.9-.4 3c-.1 1.2-.1 2.6-.1 4.2s0 3 .1 4.2c.1 1.2.2 2.2.4 3 .2.8.3 1.5.5 2.1.2.5.4 1 .6 1.4.6 1 1.2 1.6 1.9 2 .8.3 1.5.5 2.3.5zM40 2.4v.7h-3.9v12.4L47.3 3.1h-3.1v-.7H52v.7h-3.7l-8.1 9 11.6 15.8h2.8v.7H41.9v-.7H45l-8.9-12v12H40v.7H27v-.7h3.9V3.1H27v-.7h13zm18.1 25.4L67.5.9h.1l11.7 26.9h3.4v.7H69.5v-.7h3.9l-3.5-8.3h-8.1l-2.9 8.3h3.9v.7h-8v-.7h3.3zm11.5-8.9l-4.1-9.8-3.5 9.8h7.6z" fill="#0c13a1"/></svg>