<svg width="185" height="43" fill="none" xmlns="http://www.w3.org/2000/svg"><path d="M56.787 7.303v8.199h-.673c-.15-2.871-1.638-7.53-7.53-7.53h-2.798v11.63c2.871.111 5.294-1.94 5.294-5.22h.672v11.181h-.672c.038-3.354-2.462-5.405-5.294-5.293v12.449h2.983c6.82 0 8.76-5.405 8.833-9.022h.672v9.69H36.656v-.672h3.914V7.975h-3.914v-.672h20.131zm16.023 0v.672h-4.285v24.752h2.608c6.785 0 8.76-5.889 8.833-9.764h.672v10.436H59.391v-.672h3.914V7.975h-3.914v-.672H72.81zm28.778 8.574c-.746-3.764-3.13-8.648-7.268-8.648-5.703 0-6.298 7.755-6.298 13.79 0 4.285.483 12.45 6.487 12.45 3.32 0 7.268-3.802 8.199-9.393h.673v9.914h-.673c-.112-.56-.448-1.228-1.453-1.228-.857 0-1.379.41-2.905.819-.82.259-2.237.56-3.953.56-7.009 0-12.635-6.263-12.635-13.604 0-6.897 5.553-13.98 12.635-13.98 3.953 0 4.397 1.492 6.074 1.492.224 0 1.005-.186 1.117-1.194h.672v9.022h-.672zm4.022 4.474c0-9.134 7.082-13.79 12.113-13.79s12.113 4.66 12.113 13.79c0 9.13-7.082 13.79-12.113 13.79s-12.113-4.66-12.113-13.79zm17.967 0c0-11.406-2.608-13.122-5.854-13.122s-5.854 1.716-5.854 13.122 2.608 13.122 5.854 13.122 5.854-1.716 5.854-13.122zm18.187-13.048l6.151 17.147 4.66-17.147h9.69v.672h-3.914v24.752h3.914v.672h-13.044v-.672h3.914V8.423l-7.121 26.093h-.151l-9.505-26.093v24.304h3.953v.672h-8.609v-.672h3.914V7.975h-3.914v-.672h10.066-.004zm41.749 0v8.199h-.673c-.15-2.871-1.638-7.53-7.53-7.53h-2.798v11.63c2.871.111 5.294-1.94 5.294-5.22h.672v11.181h-.672c.038-3.354-2.462-5.405-5.294-5.293v12.449h2.983c6.82 0 8.759-5.405 8.833-9.022H185v9.69h-21.618v-.672h3.914V7.975h-3.914v-.672h20.131z" fill="#0C13A1"/><path d="M39.032 0L30.59 23.604l-6.58-15.63h3.775l-.02-.675H15.02v.676h3.002l2.805 6.6-4.142 11.633L9.01 7.975h3.022l-.015-.676H0v.676h3.022l11.301 26.738h.147l6.812-19.076 6.576 15.602-3.813 10.664.595.213L39.705 0h-.673z" fill="#0C13A1"/></svg>